<?xml version="1.0" standalone="no"?>
<!DOCTYPE svg PUBLIC "-//W3C//DTD SVG 20010904//EN"
 "http://www.w3.org/TR/2001/REC-SVG-20010904/DTD/svg10.dtd">
<svg version="1.0" xmlns="http://www.w3.org/2000/svg"
 width="512.000000pt" height="512.000000pt" viewBox="0 0 512.000000 512.000000"
 preserveAspectRatio="xMidYMid meet">
<metadata>
Created by potrace 1.14, written by Peter Selinger 2001-2017
</metadata>
<g transform="translate(0.000000,512.000000) scale(0.100000,-0.100000)"
fill="#000000" stroke="none">
<path d="M2417 5043 c-1 0 -36 -4 -77 -7 -42 -4 -87 -8 -100 -10 -14 -3 -59
-10 -100 -16 -150 -23 -388 -91 -550 -156 -181 -73 -461 -235 -590 -343 -14
-11 -30 -24 -35 -28 -185 -140 -432 -415 -560 -625 -109 -179 -178 -318 -244
-493 -41 -110 -104 -330 -114 -395 -9 -61 -28 -184 -33 -210 -2 -14 -7 -87
-11 -162 -5 -114 -3 -138 8 -139 8 0 215 -1 461 -1 l448 -1 1 -56 c4 -282 109
-604 278 -856 76 -113 106 -150 208 -252 249 -247 554 -399 918 -457 121 -19
397 -15 525 9 335 61 656 235 890 481 41 44 86 94 100 113 14 18 34 45 46 59
62 80 144 232 194 356 30 76 80 240 85 279 1 12 7 56 14 97 6 41 12 109 14
150 l2 75 -305 0 -305 0 -1 -45 c-1 -48 -13 -140 -19 -149 -1 -3 -6 -22 -9
-42 -6 -40 -57 -182 -82 -232 -17 -33 -26 -45 -84 -130 -79 -117 -203 -226
-341 -301 -171 -92 -310 -126 -507 -122 -143 3 -151 4 -272 37 -204 55 -420
207 -545 384 -73 103 -139 241 -161 337 -24 101 -32 157 -33 229 l-1 36 -292
1 c-161 0 -299 1 -307 1 -20 1 -7 184 24 336 66 325 220 611 454 845 142 141
265 230 436 314 276 136 545 187 855 163 163 -13 382 -72 538 -144 55 -26 252
-140 262 -152 3 -3 32 -26 64 -51 57 -43 190 -171 231 -221 103 -127 172 -233
228 -349 49 -102 89 -204 102 -260 1 -8 10 -40 19 -70 8 -30 18 -73 21 -95 3
-22 7 -49 10 -60 6 -30 16 -134 19 -192 1 -29 5 -55 9 -59 5 -5 649 -9 874 -5
l42 1 -4 103 c-6 134 -17 235 -36 342 -6 33 -13 73 -16 89 -10 60 -84 310
-119 399 -199 509 -547 942 -1001 1239 -97 64 -268 157 -382 207 -121 53 -386
136 -494 155 -15 3 -55 10 -90 16 -77 15 -92 17 -197 26 -73 6 -358 12 -363 7z"/>
<path d="M1666 2453 c-7 -8 4 -116 19 -183 94 -426 465 -716 900 -704 354 10
663 225 798 555 43 103 53 147 63 265 l7 71 -892 0 c-490 0 -893 -2 -895 -4z"/>
<path d="M935 552 c-3 -3 -5 -122 -5 -264 l0 -258 1635 0 c899 0 1635 3 1636
8 5 44 3 491 -3 503 -6 14 -158 16 -1632 16 -894 0 -1628 -3 -1631 -5z"/>
</g>
</svg>
