<svg width="164" height="162" viewBox="0 0 164 162" fill="none" xmlns="http://www.w3.org/2000/svg">
<path d="M124.41 82.7029C124.41 88.2679 123.314 93.7785 121.185 98.9199C119.055 104.061 115.933 108.733 111.998 112.668C108.063 116.603 103.392 119.725 98.2503 121.854C93.1089 123.984 87.5983 125.08 82.0333 125.08C76.4683 125.08 70.9577 123.984 65.8163 121.854C60.6749 119.725 56.0033 116.603 52.0682 112.668C48.1331 108.733 45.0117 104.061 42.882 98.9199C40.7524 93.7785 39.6562 88.2679 39.6563 82.7029" stroke="#6C5DD3" stroke-width="19.3852"/>
<path d="M15.312 82.7029C15.312 73.8225 17.0378 65.0291 20.3909 56.8247C23.7439 48.6203 28.6586 41.1656 34.8542 34.8862C41.0499 28.6069 48.4052 23.6258 56.5002 20.2274C64.5952 16.829 73.2714 15.0799 82.0333 15.0799C90.7953 15.0799 99.4715 16.829 107.566 20.2274C115.661 23.6258 123.017 28.6069 129.212 34.8862C135.408 41.1656 140.323 48.6203 143.676 56.8247C147.029 65.0291 148.755 73.8225 148.755 82.7029" stroke="#6C5DD3" stroke-opacity="0.866667" stroke-width="29.3033"/>
<path d="M110.435 82.7029C110.435 86.4327 109.7 90.1259 108.273 93.5717C106.846 97.0176 104.754 100.149 102.116 102.786C99.4791 105.423 96.3482 107.515 92.9023 108.943C89.4565 110.37 85.7632 111.105 82.0335 111.105C78.3037 111.105 74.6105 110.37 71.1646 108.943C67.7188 107.515 64.5878 105.423 61.9505 102.786C59.3131 100.149 57.2211 97.0176 55.7938 93.5717C54.3665 90.1259 53.6318 86.4327 53.6318 82.7029L82.0335 82.7029H110.435Z" fill="#6C5DD3"/>
<rect x="30.312" y="143.08" width="104" height="18" fill="#6C5DD3"/>
</svg>
